# Blender v2.90.1 OBJ File: ''
# www.blender.org
mtllib bullet.mtl
o Cube
v 0.000000 -0.000000 0.500000
v 0.000000 0.000000 -0.500000
v 0.250000 0.250000 0.000000
v -0.250000 -0.250000 -0.000000
v 0.250000 -0.250000 -0.000000
v -0.250000 0.250000 0.000000
vt 0.500000 0.750000
vt 0.625000 1.000000
vt 0.500000 1.000000
vt 0.500000 0.000000
vt 0.625000 0.250000
vt 0.500000 0.250000
vt 0.500000 0.500000
vt 0.625000 0.750000
vt 0.625000 0.500000
vt 0.375000 0.250000
vt 0.375000 0.500000
vt 0.375000 0.000000
vt 0.375000 0.750000
vn 0.0000 -0.8944 0.4472
vn -0.8944 -0.0000 0.4472
vn 0.8944 -0.0000 0.4472
vn 0.0000 0.8944 0.4472
vn 0.0000 0.8944 -0.4472
vn 0.8944 0.0000 -0.4472
vn -0.8944 0.0000 -0.4472
vn 0.0000 -0.8944 -0.4472
g Cube_Cube_Material
usemtl Material
s off
f 5/1/1 1/2/1 4/3/1
f 4/4/2 1/5/2 6/6/2
f 3/7/3 1/8/3 5/1/3
f 6/6/4 1/9/4 3/7/4
f 2/10/5 6/6/5 3/7/5
f 2/11/6 3/7/6 5/1/6
f 2/12/7 4/4/7 6/6/7
f 2/13/8 5/1/8 4/3/8
