mtllib original_mat.mtl

v -3.566950 -0.106071 0.847263
v -3.748734 0.445241 0.665479
v -6.745598 -2.202258 -2.331385
v -6.927382 -1.650946 -2.513168
v -2.203569 0.048093 -0.617783
v -5.376574 -2.048093 -3.802073

v -8.071344 -2.834517 -3.657739
v -6.722382 -2.193235 -2.308777
v -6.907661 -1.631323 -2.494056
v -5.363470 -2.025517 -3.778292

vt 0.375000 0.000000
vt 0.625000 0.000000
vt 0.625000 0.250000
vt 0.375000 0.250000
vt 0.375000 0.500000
vt 0.625000 0.750000
vt 0.625000 1.000000
vt 0.375000 1.000000
vt 0.125000 0.500000
vt 0.375000 0.750000
vt 0.125000 0.750000
vt 0.625000 0.500000
vt 0.875000 0.500000
vt 0.875000 0.750000

vt 0.375000 0.000000
vt 0.625000 0.000000
vt 0.625000 0.250000
vt 0.375000 0.250000
vt 0.375000 0.500000
vt 0.625000 0.750000
vt 0.625000 1.000000
vt 0.375000 1.000000
vt 0.125000 0.500000
vt 0.375000 0.750000
vt 0.125000 0.750000
vt 0.625000 0.500000
vt 0.875000 0.500000
vt 0.875000 0.750000

vn -0.7071 0.0000 0.7071
vn -0.6409 -0.4226 -0.6409
vn 0.6409 0.4226 0.6409
vn 0.3576 -0.9030 0.2380
vn -0.1408 0.8855 -0.4429

vn -0.8925 -0.1736 -0.4162
vn 0.4435 -0.1710 -0.8798
vn -0.4435 0.1710 0.8798
vn 0.1568 -0.9517 0.2641
vn 0.1109 0.9846 -0.1353

usemtl None
s off
f 1/1/1 2/2/1 4/3/1 3/4/1
f 3/4/2 4/3/2 6/5/2
f 5/6/3 2/7/3 1/8/3
f 3/9/4 6/5/4 5/10/4 1/11/4
f 6/12/5 4/13/5 2/14/5 5/6/5

f 15/35/14 16/36/14 18/37/14 17/38/14
f 17/38/15 18/37/15 20/39/15
f 19/40/16 16/41/16 15/42/16
f 17/43/17 20/39/17 19/44/17 15/45/17
f 20/46/18 18/47/18 16/48/18 19/40/18